<svg width="17" height="20" viewBox="0 0 17 20" fill="none" xmlns="http://www.w3.org/2000/svg">
<g id="bookmark-white">
<path id="Shape" fill-rule="evenodd" clip-rule="evenodd" d="M15.9791 0.119074C16.2697 0.233611 16.5012 0.414167 16.6731 0.661065C16.8446 0.907824 16.9307 1.18088 16.9306 1.48056V18.5182C16.9306 18.818 16.8448 19.091 16.673 19.3376C16.5011 19.5847 16.2696 19.7654 15.9791 19.8798C15.8116 19.9503 15.6177 19.9853 15.3974 19.9853C14.9745 19.9853 14.6088 19.8443 14.3004 19.5628L8.47121 13.9579L2.64204 19.5626C2.32473 19.8532 1.95922 19.9987 1.54491 19.9987C1.34227 19.9987 1.14834 19.9591 0.963432 19.8799C0.672691 19.7655 0.441302 19.5847 0.269497 19.338C0.0977373 19.091 0.0117188 18.8181 0.0117188 18.5183V1.48037C0.0117188 1.18069 0.0977373 0.907639 0.269497 0.66088C0.441302 0.41412 0.672691 0.233333 0.963432 0.118889C1.14852 0.0396759 1.34227 0 1.54491 0H15.3974V0.000185185C15.6001 0.000185185 15.7941 0.0398611 15.9791 0.119074ZM9.64764 12.7419L15.2388 18.1083V1.69208H1.70376V18.1083L7.29487 12.7419L8.47121 11.6185L9.64764 12.7419Z" fill="white"/>
</g>
</svg>
