<svg width="23" height="20" viewBox="0 0 23 20" fill="none" xmlns="http://www.w3.org/2000/svg">
<path fill-rule="evenodd" clip-rule="evenodd" d="M7.33264 13.3335H7.3316C6.96476 13.3344 6.66667 13.633 6.66667 14C6.66667 14.3675 6.9658 14.6667 7.33333 14.6667H19.4222C19.7905 14.6667 20.0889 14.9651 20.0889 15.3333C20.0889 15.7016 19.7905 16 19.4222 16H7.33333C6.23056 16 5.33333 15.1028 5.33333 14C5.33333 13.1793 5.83038 12.4729 6.53889 12.1649L4.13194 1.33333H0.666667C0.298438 1.33333 0 1.0349 0 0.666667C0 0.298438 0.298438 0 0.666667 0H4.66667C4.97917 0 5.24965 0.217014 5.31753 0.522049L5.7941 2.66667H22.0889C22.2981 2.66667 22.4951 2.76493 22.6212 2.93194C22.747 3.09896 22.7873 3.31528 22.7299 3.51649L20.0632 12.8498C19.9814 13.1359 19.7198 13.3333 19.4222 13.3333H7.33524L7.33264 13.3335ZM18.9193 12L21.205 4H6.09028L7.86806 12H18.9193Z" fill="#757373"/>
<path fill-rule="evenodd" clip-rule="evenodd" d="M8.66602 20C7.56324 20 6.66602 19.1028 6.66602 18C6.66602 16.8972 7.56324 16 8.66602 16C9.76879 16 10.666 16.8972 10.666 18C10.666 19.1028 9.76879 20 8.66602 20ZM9.33268 18C9.33268 17.6325 9.03355 17.3333 8.66602 17.3333C8.29848 17.3333 7.99935 17.6325 7.99935 18C7.99935 18.3675 8.29848 18.6667 8.66602 18.6667C9.03355 18.6667 9.33268 18.3675 9.33268 18Z" fill="#757373"/>
<path fill-rule="evenodd" clip-rule="evenodd" d="M18.0898 20C16.9871 20 16.0898 19.1028 16.0898 18C16.0898 16.8972 16.9871 16 18.0898 16C19.1926 16 20.0898 16.8972 20.0898 18C20.0898 19.1028 19.1926 20 18.0898 20ZM18.7565 18C18.7565 17.6325 18.4574 17.3333 18.0898 17.3333C17.7223 17.3333 17.4232 17.6325 17.4232 18C17.4232 18.3675 17.7223 18.6667 18.0898 18.6667C18.4574 18.6667 18.7565 18.3675 18.7565 18Z" fill="#757373"/>
</svg>
