<svg width="21" height="20" viewBox="0 0 21 20" fill="none" xmlns="http://www.w3.org/2000/svg">
<g id="close">
<path id="Path" fill-rule="evenodd" clip-rule="evenodd" d="M12.2688 10.0002L20.1335 2.13513C20.6222 1.6469 20.6222 0.854719 20.1335 0.366487C19.6449 -0.122162 18.8536 -0.122162 18.365 0.366487L10.5002 8.23157L2.63504 0.366487C2.14641 -0.122162 1.3551 -0.122162 0.866471 0.366487C0.377843 0.854719 0.377843 1.6469 0.866471 2.13513L8.73164 10.0002L0.866471 17.8653C0.377843 18.3535 0.377843 19.1457 0.866471 19.6339C1.11079 19.8778 1.43098 20 1.75076 20C2.07053 20 2.39073 19.8778 2.63504 19.6335L10.5002 11.7684L18.365 19.6335C18.6093 19.8778 18.9295 20 19.2492 20C19.569 20 19.8892 19.8778 20.1335 19.6335C20.6222 19.1453 20.6222 18.3531 20.1335 17.8649L12.2688 10.0002Z" fill="#231D1F"/>
</g>
</svg>
