<svg width="20" height="21" viewBox="0 0 20 21" fill="none" xmlns="http://www.w3.org/2000/svg">
<g id="Group">
<path id="Oval" fill-rule="evenodd" clip-rule="evenodd" d="M10 19C14.9706 19 19 14.9706 19 10C19 5.02944 14.9706 1 10 1C5.02944 1 1 5.02944 1 10C1 14.9706 5.02944 19 10 19Z" stroke="#3FA6DB" stroke-width="2"/>
<path id="?" d="M9.33 12.52C9.33 11.98 9.45 11.535 9.69 11.185C9.94 10.825 10.3 10.435 10.77 10.015C11.13 9.695 11.395 9.42 11.565 9.19C11.745 8.95 11.835 8.68 11.835 8.38C11.835 7.96 11.665 7.62 11.325 7.36C10.985 7.1 10.53 6.97 9.96 6.97C8.88 6.97 8.065 7.355 7.515 8.125L6.06 7.18C6.49 6.59 7.045 6.14 7.725 5.83C8.405 5.51 9.205 5.35 10.125 5.35C11.245 5.35 12.135 5.595 12.795 6.085C13.465 6.565 13.8 7.23 13.8 8.08C13.8 8.49 13.73 8.85 13.59 9.16C13.46 9.47 13.3 9.735 13.11 9.955C12.92 10.165 12.67 10.41 12.36 10.69C11.98 11.03 11.695 11.33 11.505 11.59C11.325 11.85 11.235 12.16 11.235 12.52H9.33ZM10.29 16.105C9.94 16.105 9.65 15.995 9.42 15.775C9.2 15.545 9.09 15.265 9.09 14.935C9.09 14.605 9.2 14.33 9.42 14.11C9.65 13.89 9.94 13.78 10.29 13.78C10.63 13.78 10.91 13.89 11.13 14.11C11.36 14.33 11.475 14.605 11.475 14.935C11.475 15.265 11.36 15.545 11.13 15.775C10.91 15.995 10.63 16.105 10.29 16.105Z" fill="#3FA6DB"/>
</g>
</svg>
