<svg width="20" height="16" viewBox="0 0 20 16" fill="none" xmlns="http://www.w3.org/2000/svg">
<path fill-rule="evenodd" clip-rule="evenodd" d="M0.230769 8.8C0.0769231 8.64 0 8.4 0 8.24C0 8.08 0.0769231 7.84 0.230769 7.68L1.30769 6.56C1.61538 6.24 2.07692 6.24 2.38462 6.56L2.46154 6.64L6.69231 11.36C6.84615 11.52 7.07692 11.52 7.23077 11.36L17.5385 0.24H17.6154C17.9231 -0.08 18.3846 -0.08 18.6923 0.24L19.7692 1.36C20.0769 1.68 20.0769 2.16 19.7692 2.48L7.46154 15.76C7.30769 15.92 7.15385 16 6.92308 16C6.69231 16 6.53846 15.92 6.38462 15.76L0.384615 9.04L0.230769 8.8Z" fill="white"/>
</svg>
