<svg width="24" height="15" viewBox="0 0 24 15" fill="none" xmlns="http://www.w3.org/2000/svg">
<path fill-rule="evenodd" clip-rule="evenodd" d="M11.7072 0.038208C18.0726 0.038208 23.0566 6.75844 23.2658 7.04458C23.4642 7.31577 23.4642 7.68423 23.2658 7.95565C23.0566 8.24152 18.0726 14.9618 11.7072 14.9618C5.34174 14.9618 0.35753 8.24156 0.148582 7.95542C-0.0495274 7.68396 -0.0495274 7.31577 0.148582 7.04431C0.35753 6.75844 5.34174 0.038208 11.7072 0.038208ZM1.75518 7.49947C2.95733 8.95763 7.01835 13.418 11.7072 13.418C16.4061 13.418 20.4586 8.95992 21.6592 7.50052C20.4565 6.04159 16.3958 1.58202 11.7072 1.58202C7.00829 1.58202 2.95578 6.04004 1.75518 7.49947Z" fill="#757373"/>
<path fill-rule="evenodd" clip-rule="evenodd" d="M7.07568 7.50001C7.07568 4.94626 9.15341 2.86853 11.7072 2.86853C14.2609 2.86853 16.3386 4.94626 16.3386 7.50001C16.3386 10.0538 14.2609 12.1315 11.7072 12.1315C9.15341 12.1315 7.07568 10.0538 7.07568 7.50001ZM8.61954 7.50001C8.61954 9.20255 10.0046 10.5876 11.7072 10.5876C13.4098 10.5876 14.7948 9.20255 14.7948 7.50001C14.7948 5.79746 13.4097 4.41239 11.7072 4.41239C10.0046 4.41239 8.61954 5.79746 8.61954 7.50001Z" fill="#757373"/>
</svg>
