<svg width="22" height="20" viewBox="0 0 22 20" fill="none" xmlns="http://www.w3.org/2000/svg">
<g id="gift">
<path id="Shape" fill-rule="evenodd" clip-rule="evenodd" d="M20 5.32023H15.7813C16.084 5.11356 16.344 4.90823 16.5253 4.72423C17.6 3.6429 17.6 1.88289 16.5253 0.801562C15.4813 -0.249105 13.66 -0.250438 12.6147 0.801562C12.0373 1.38156 10.5027 3.74289 10.7147 5.32023H10.6187C10.8293 3.74289 9.296 1.38156 8.71867 0.801562C7.67333 -0.250438 5.852 -0.249105 4.808 0.801562C3.73333 1.88289 3.73333 3.6429 4.80667 4.72423C4.98933 4.90823 5.24933 5.11356 5.552 5.32023H1.33333C0.598667 5.32023 0 5.91889 0 6.65356V9.98689C0 10.3549 0.298667 10.6536 0.666667 10.6536H1.33333V18.6536C1.33333 19.3882 1.932 19.9869 2.66667 19.9869H18.6667C19.4013 19.9869 20 19.3882 20 18.6536V10.6536H20.6667C21.0347 10.6536 21.3333 10.3549 21.3333 9.98689V6.65356C21.3333 5.91889 20.7347 5.32023 20 5.32023ZM5.75333 1.74156C6.024 1.46956 6.38267 1.32023 6.764 1.32023C7.144 1.32023 7.50267 1.46956 7.77333 1.74156C8.672 2.64556 9.56533 4.9549 9.25467 5.27623C9.25467 5.27623 9.19867 5.32023 9.008 5.32023C8.08667 5.32023 6.328 4.3629 5.75333 3.78423C5.19467 3.22156 5.19467 2.30423 5.75333 1.74156ZM2.66667 18.6536H10V10.6536H2.66667V18.6536ZM10 9.32023H1.33333V6.65356H9.008H10V9.32023ZM15.58 1.74156C15.04 1.20023 14.1013 1.1989 13.56 1.74156C12.6613 2.64556 11.768 4.9549 12.0773 5.27623C12.0787 5.27756 12.1347 5.32023 12.3253 5.32023C13.2467 5.32023 15.0053 4.3629 15.58 3.78423C16.1387 3.22156 16.1387 2.30423 15.58 1.74156ZM18.6667 18.6536H11.3333V10.6536H18.6667V18.6536ZM11.3333 9.32023H20V6.65356H12.3253H11.3333V9.32023Z" fill="white"/>
</g>
</svg>
