<svg width="28" height="20" viewBox="0 0 28 20" fill="none" xmlns="http://www.w3.org/2000/svg">
<g id="book">
<path id="Shape" fill-rule="evenodd" clip-rule="evenodd" d="M27.2539 1.67969H27.2485H25.4222V1.05478C25.4321 0.807435 25.2721 0.585146 25.0343 0.516055C23.7665 0.183799 22.4609 0.0171996 21.1502 0.0204319C18.9953 0.0204319 16.0593 0.50528 13.8882 2.71403C11.7333 0.483732 8.77576 0.0204319 6.62626 0.0204319C5.31556 0.0171996 4.00997 0.183799 2.74209 0.516055C2.50438 0.585146 2.34438 0.807435 2.35421 1.05478V1.6743H0.538721C0.241212 1.6743 0 1.91552 0 2.21302V19.4198C0 19.7173 0.241212 19.9585 0.538721 19.9585C0.631246 19.9582 0.722155 19.9341 0.802694 19.8884L0.809423 19.8849C1.03049 19.7679 6.36478 16.9452 13.7643 18.811H13.8451H13.8936C13.9366 18.8162 13.9799 18.8162 14.0229 18.811C21.565 16.8985 26.9522 19.84 26.9845 19.8884C27.1512 19.9847 27.3566 19.9847 27.5232 19.8884C27.6889 19.7928 27.7914 19.6165 27.7926 19.4251V2.21841C27.7926 1.9209 27.5514 1.67969 27.2539 1.67969ZM1.07744 18.5632V2.75713H2.36498V16.2682C2.36162 16.5658 2.60007 16.8097 2.89758 16.813C2.92667 16.8134 2.95576 16.8113 2.98451 16.807C4.09899 16.6368 5.22417 16.5468 6.35152 16.5376C7.91313 16.5105 9.46821 16.7454 10.9522 17.2326C7.60101 16.8273 4.20182 17.2853 1.07744 18.5632ZM3.42088 15.6541C4.39293 15.5307 5.37165 15.4678 6.35151 15.4656C10.0471 15.4656 12.2343 16.4514 13.3549 17.1841L13.3387 3.76454C11.4101 1.58811 8.6303 1.12481 6.61549 1.12481C5.54088 1.12744 4.46976 1.24669 3.42088 1.48036V15.6541ZM14.4323 3.76454C16.3609 1.60966 19.1407 1.12481 21.1556 1.12481C22.2301 1.12797 23.3012 1.24717 24.3502 1.48036V15.6541C23.3836 15.5296 22.4102 15.4648 21.4357 15.4602C17.7616 15.4602 15.569 16.446 14.4323 17.1787V3.76454ZM16.8135 17.2326C20.1717 16.8237 23.5787 17.2818 26.7098 18.5632L26.7313 2.75713H25.4438V16.2629C25.4441 16.2919 25.4421 16.321 25.4377 16.3498C25.3931 16.6439 25.1184 16.8462 24.8242 16.8016C23.7026 16.6321 22.5701 16.5439 21.4357 16.5376C19.8669 16.5087 18.3044 16.7437 16.8135 17.2326Z" fill="#757373"/>
</g>
</svg>
