<svg width="28" height="20" viewBox="0 0 28 20" fill="none" xmlns="http://www.w3.org/2000/svg">
<g id="fast-forward">
<path id="Shape" fill-rule="evenodd" clip-rule="evenodd" d="M27.5976 9.60145L14.4268 0.333153C14.2776 0.227787 14.0839 0.215104 13.9215 0.299006C13.76 0.382421 13.6585 0.549738 13.6585 0.731689V9.4034L0.768293 0.338519C0.619512 0.234616 0.425366 0.220958 0.262927 0.30486C0.101463 0.388762 0 0.556079 0 0.738031V19.2624C0 19.4444 0.101463 19.6117 0.262927 19.6956C0.334146 19.7317 0.41122 19.7497 0.487805 19.7497C0.586342 19.7497 0.68439 19.7195 0.768293 19.661L13.6585 10.5966V19.2683C13.6585 19.4502 13.76 19.6175 13.9215 19.7014C13.9927 19.738 14.0698 19.7561 14.1463 19.7561C14.2449 19.7561 14.3434 19.7258 14.4268 19.6668L27.5976 10.3985C27.7278 10.3078 27.8049 10.1585 27.8049 9.99998C27.8049 9.84144 27.7278 9.69218 27.5976 9.60145ZM0.97561 18.3229V1.67754L12.8107 9.99998L0.97561 18.3229ZM26.4698 9.99998L14.6341 1.67169V18.3283L26.4698 9.99998Z" fill="white"/>
</g>
</svg>
