<svg width="25" height="25" viewBox="0 0 25 25" fill="none" xmlns="http://www.w3.org/2000/svg">
<path fill-rule="evenodd" clip-rule="evenodd" d="M14.711 12.5003L24.5419 2.66891C25.1527 2.05862 25.1527 1.0684 24.5419 0.458108C23.9311 -0.152703 22.942 -0.152703 22.3312 0.458108L12.5003 10.2895L2.6688 0.458108C2.05801 -0.152703 1.06887 -0.152703 0.458089 0.458108C-0.152696 1.0684 -0.152696 2.05862 0.458089 2.66891L10.2895 12.5003L0.458089 22.3316C-0.152696 22.9419 -0.152696 23.9321 0.458089 24.5424C0.763482 24.8473 1.16372 25 1.56344 25C1.96317 25 2.36341 24.8473 2.6688 24.5419L12.5003 14.7105L22.3312 24.5419C22.6366 24.8473 23.0368 25 23.4366 25C23.8363 25 24.2365 24.8473 24.5419 24.5419C25.1527 23.9316 25.1527 22.9414 24.5419 22.3311L14.711 12.5003Z" fill="white"/>
</svg>
