<svg width="17" height="33" viewBox="0 0 17 33" fill="none" xmlns="http://www.w3.org/2000/svg">
<path d="M4.72939 1.045L9.40939 6.7C11.2944 9.04 12.8544 10.86 14.0894 12.16C14.1544 12.225 14.1544 12.225 14.2194 12.225H14.2844C14.2844 12.29 14.3494 12.29 14.4144 12.355C14.4794 12.42 14.6094 12.55 14.7394 12.615C16.3644 13.915 16.2994 15.28 15.4544 16.905C15.1294 17.49 14.7394 18.14 14.2194 18.92C13.3744 20.22 12.2044 21.91 10.7094 23.925L4.33939 32.115C3.62439 32.895 2.45439 33.025 1.67439 32.375C0.894394 31.725 0.764394 30.555 1.34939 29.775L7.65439 21.65C9.14939 19.7 10.2544 18.075 11.0994 16.84C11.4894 16.255 11.8144 15.735 12.0094 15.345C11.6844 15.085 11.4894 14.89 11.3594 14.76C10.1894 13.525 8.56439 11.64 6.48439 9.105L1.86939 3.515C1.15439 2.735 1.28439 1.565 2.06439 0.849997C2.84439 0.134998 4.01439 0.264997 4.72939 1.045Z" fill="white"/>
</svg>
