<svg xmlns="http://www.w3.org/2000/svg" xmlns:xlink="http://www.w3.org/1999/xlink" width="0" height="0" style="position:absolute">
	
		<symbol id="burger" viewBox="0 0 30 26">
			<path d="M0 0h30v1.625H0zM0 12.188h30v1.625H0zM0 24.375h30V26H0z"></path>
		</symbol>
	
		<symbol id="inst" viewBox="0 0 32 32">
			<path fill="#1B3A74" d="M0 0h32v32H0z"></path><path d="M22.715 16.758a6.858 6.858 0 1 1-13.716 0 6.858 6.858 0 0 1 13.716 0zm-6.857-5.143a5.144 5.144 0 1 0 .001 10.288 5.144 5.144 0 0 0-.001-10.288zM24.001 10.23a1.615 1.615 0 1 0 0-3.23 1.615 1.615 0 0 0 0 3.23z" fill="#fff"></path>
		</symbol>
	
		<symbol id="interso" viewBox="0 0 90 20">
			<path fill-rule="evenodd" clip-rule="evenodd" d="M70.24 16.479h-2.4V12.39h2.4c.454.992 1.73 1.78 2.464 1.78 1.096 0 1.607-.23 1.607-.924 0-.413-.518-.792-1.555-1.14-.321-.107-1.735-.463-1.867-.498-1.2-.32-2.007-.7-2.43-1.14-.461-.485-.691-1.226-.691-2.22 0-1.059.368-1.903 1.106-2.526.737-.62 1.743-.932 3.01-.932.95 0 2.011.21 3.025.792v-.63h2.306v3.782h-2.306c-.53-1.122-1.576-1.74-2.553-1.74-.658 0-1.26.215-1.26 1.006 0 .418.468.788 1.403 1.113.395.137 1.859.47 1.99.502 1.118.241 1.927.626 2.42 1.168.496.537.745 1.289.745 2.26 0 1.1-.37 1.98-1.108 2.642-.737.662-1.726.998-2.962.998-1.044 0-2.276-.324-3.344-.913v.709zm7.794-5.741c0-1.84.536-3.294 1.612-4.353 1.076-1.063 2.534-1.595 4.381-1.595 1.855 0 3.317.533 4.377 1.595C89.47 7.444 90 8.898 90 10.738c0 1.838-.536 3.293-1.605 4.365-1.07 1.066-2.532 1.602-4.386 1.602-1.85 0-3.306-.532-4.374-1.6-1.069-1.067-1.6-2.52-1.6-4.367zm3.342-.025c0 1.213.224 2.127.665 2.748.446.618 1.103.925 1.968.925.867 0 1.529-.311 1.976-.934.449-.619.675-1.534.675-2.74 0-1.214-.22-2.122-.664-2.736-.44-.61-1.094-.913-1.969-.913-.867 0-1.531.307-1.977.92-.45.613-.674 1.523-.674 2.73zM64.997 1.136h3.065L62.38 20H59.32l5.677-18.864zm-5.172 0h3.062L57.208 20h-3.063l5.68-18.864z" fill="#000"></path><path fill-rule="evenodd" clip-rule="evenodd" d="M53.602 16.488h-3.65v-3.651h3.65v3.65zm-13.496-9.31h-1.552V4.946h4.824v1.367c.82-1.556 3.333-1.88 4.913-1.576v2.74c-1.366-.225-3.082-.1-4.04 1.064-.584.708-.873 1.704-.873 3.205v2.434h1.638v2.308h-4.91v-9.31zM26.95 10.725c0-1.882.521-3.366 1.564-4.451 1.043-1.087 2.47-1.633 4.268-1.633 1.845 0 3.263.517 4.262 1.541.998 1.027 1.496 2.494 1.496 4.403 0 .112-.012.738-.049 1.031l-8.218.014c0 .904.222 1.602.675 2.089.446.489 1.096.732 1.933.732.61 0 1.122-.127 1.528-.389.404-.26.715-.649.933-1.176h3.055c-.278 1.309-.857 2.29-1.74 2.936-.884.645-2.096.967-3.631.967-1.924 0-3.418-.528-4.484-1.593-1.195-1.2-1.592-2.815-1.592-4.471zm3.347-1.207h4.995V9.26c0-.687-.23-1.248-.693-1.675-.469-.435-1.065-.651-1.791-.651-.743 0-1.345.238-1.815.71-.463.473-.696 1.098-.696 1.873zm-3.322-2.292h-2.406v5.884c0 .373.064.642.192.811.127.17.334.257.61.257l1.604-.003v2.587c-.183.018-1.909.027-2.106.027-1.237 0-2.139-.247-2.714-.74-.577-.503-.86-1.28-.86-2.34V7.227h-1.842v-2.28h1.841V2.27h3.275v2.677h2.406v2.28zM53.602 8.57h-3.65V4.946h3.65v3.625zM1.562 7.178H0V4.946h4.853v9.234h2.726V7.178H6.014V4.946h4.752V6.16c1.57-1.635 5.596-2.15 7.146-.444.644.716.967 1.833.967 3.349v5.115h1.537v2.309h-4.811V9.475c0-3.302-4.766-2.24-4.766.97v3.734h1.763v2.309H1.562v-9.31zm3.29-3.905H1.42V0h3.433v3.273z" fill="#ABABAB"></path>
		</symbol>
	
		<symbol id="logo_gk" viewBox="0 0 325.462 82.491">
			<path fill="#1B3A74" d="M99.978 1.119h7.652v42.322h-8.736V21.696L87.478 43.441h-5.754L70.308 21.696v21.745h-8.736V1.119h7.652l15.75 30.866L99.978 1.119zm-61.194 0h-10.84L13.915 18.446h-3.642V1.119H.839v42.322h9.434V26.279h3.663l14.305 17.162h11.567L21.425 21.979l17.359-20.86zm-2.352 29.077h19.042v-7.833H36.432v7.833zM196.37 1.119h-37.429v8.34h13.964v33.982h9.652V9.459h13.813v-8.34zm-37.121 21.047c0 12.242-10.465 22.167-23.375 22.167s-23.375-9.925-23.375-22.167S122.964 0 135.874 0s23.375 9.924 23.375 22.166zm-9.784 0c0-7.605-6.085-13.771-13.591-13.771s-13.591 6.166-13.591 13.771c0 7.606 6.085 13.772 13.591 13.772s13.591-6.166 13.591-13.772zm92.873 0c0 12.242-10.466 22.167-23.375 22.167s-23.375-9.925-23.375-22.167S206.054 0 218.963 0s23.375 9.924 23.375 22.166zm-9.784 0c0-7.605-6.085-13.771-13.591-13.771s-13.591 6.166-13.591 13.771c0 7.606 6.085 13.772 13.591 13.772s13.591-6.166 13.591-13.772zm47.861-6.95c0 14.077-15.085 14.077-15.085 14.077h-8.618v14.148h-9.182V1.119h17.699s15.186.02 15.186 14.097zm-9.787-.01c0-5.792-6.56-5.741-6.56-5.741h-7.356v11.957h7.559s6.357.201 6.357-6.216zm45.463 13.05c-1.584 4.548-5.162 7.683-10.988 7.683-8.033 0-12.312-6.166-12.312-13.772 0-7.605 4.785-13.771 12.312-13.771 5.11 0 8.961 3.092 10.783 7.59l9.442-1.191C322.582 6.177 315.011 0 304.854 0c-13.02 0-21.604 9.924-21.604 22.166s8.246 22.167 21.604 22.167c10.889 0 18.095-6.253 20.608-14.95l-9.371-1.127zM0 82.119h3.783V63.856h10.821v-3.441H0v21.704zm18.057 0h3.814v-6.977h4.31c4.775 0 8.682-2.542 8.682-7.41 0-4.434-3.193-7.317-8.248-7.317h-8.558v21.704zm3.814-10.418v-7.813h4.434c2.853 0 4.682 1.333 4.682 3.876 0 2.325-1.798 3.938-4.682 3.938h-4.434zm19.97 10.759c2.822 0 5.054-1.396 6.884-5.085l8.464-16.96h-4.124l-5.953 12.619-6.76-12.619h-4.278l9.054 16.433c-1.085 1.768-2.45 2.357-3.411 2.357-.961 0-1.798-.187-2.666-.683l-1.458 2.853c1.271.682 2.574 1.085 4.248 1.085zm17.591-.341h3.814V63.856h10.077v18.263h3.814V60.415H59.432v21.704zm23.026 0h3.814V63.856h10.077v18.263h3.814V60.415H82.458v21.704zm21.129 0h3.907l2.232-5.24h10.263l2.202 5.24h4.031l-9.55-21.859h-3.535l-9.55 21.859zm7.535-8.619l3.721-8.682 3.751 8.682h-7.472zm28.053 8.619h3.814v-9.14h3.101l7.689 9.14h4.619l-9.425-11.432 9.023-10.272h-4.682l-7.785 8.781h-2.541v-8.781h-3.814v21.704zm30.54.372c6.666 0 11.379-5.116 11.379-11.224 0-6.171-4.65-11.225-11.316-11.225s-11.379 5.116-11.379 11.225c-.001 6.171 4.65 11.224 11.316 11.224zm.062-3.504c-4.311 0-7.379-3.503-7.379-7.72 0-4.279 3.008-7.721 7.316-7.721 4.311 0 7.381 3.504 7.381 7.721.001 4.279-3.007 7.72-7.318 7.72zm15.568 3.132h3.75V69.841l7.201 12.278h1.604l6.579-12.34v12.34h3.814V60.415h-2.615l-8.566 16.507-9.365-16.507h-2.402v21.704zm27.846 0h3.813V63.856h10.078v18.263h3.813V60.415h-17.703v21.704zm20.45 0h3.906l2.232-5.24h10.262l2.203 5.24h4.029l-9.549-21.859h-3.535l-9.548 21.859zm7.533-8.619l3.721-8.682 3.752 8.682h-7.473zm18.541 8.619h3.813v-9.146h10.355v9.146h3.814V60.415h-3.814v9.022h-10.355v-9.022h-3.813v21.704zm23.305 0h2.263l12.278-14.728v14.728h3.752V60.415h-2.266l-12.275 14.47v-14.47h-3.752v21.704zm23.454 0h2.263l12.278-14.728v14.728h3.752V60.415h-2.266l-12.275 14.47v-14.47h-3.752v21.704zm9.161-23.409c2.637 0 4.465-1.675 4.869-4.341l-2.295-.435c-.404 1.303-1.178 2.108-2.574 2.108-1.395 0-2.201-.806-2.572-2.108l-2.326.435c.433 2.666 2.263 4.341 4.898 4.341z"></path>
		</symbol>
	
		<symbol id="vk" viewBox="0 0 32 32">
			<path fill="#1B3A74" d="M0 0h32v32H0z"></path><path fill-rule="evenodd" clip-rule="evenodd" d="M15.775 21.291h1.168s.352-.039.533-.237c.166-.18.16-.522.16-.522s-.021-1.594.706-1.828c.716-.232 1.637 1.54 2.612 2.22.738.517 1.298.404 1.298.404l2.61-.038s1.364-.086.718-1.177c-.054-.09-.378-.807-1.942-2.282-1.635-1.545-1.416-1.295.555-3.967 1.2-1.628 1.68-2.62 1.53-3.046-.142-.406-1.025-.298-1.025-.298l-2.94.018s-.217-.03-.38.068c-.157.096-.258.32-.258.32s-.465 1.26-1.085 2.33c-1.308 2.26-1.832 2.38-2.045 2.239-.498-.326-.374-1.314-.374-2.014 0-2.19.326-3.104-.635-3.34-.32-.078-.555-.13-1.37-.139-1.049-.01-1.936.004-2.438.254-.334.167-.593.537-.435.559.194.026.634.12.867.443.3.417.29 1.352.29 1.352s.173 2.578-.404 2.898c-.396.22-.939-.23-2.105-2.278a19.327 19.327 0 0 1-1.049-2.21s-.087-.218-.241-.334a1.213 1.213 0 0 0-.451-.185l-2.791.019s-.419.011-.573.197c-.137.165-.011.506-.011.506s2.185 5.202 4.66 7.821c2.269 2.405 4.845 2.247 4.845 2.247z" fill="#fff"></path>
		</symbol>
	
</svg>
